<svg width="172" height="30" viewBox="0 0 172 30" fill="none" xmlns="http://www.w3.org/2000/svg">
<path d="M40.9557 23.5209L38.685 7.56258C38.1017 3.45842 34.5811 0.416748 30.4355 0.416748H11.5615C7.41593 0.416748 3.8953 3.45842 3.312 7.56258L1.04129 23.5209C0.582983 26.7293 3.06201 29.5834 6.29099 29.5834C7.70758 29.5834 9.04084 29.0209 10.0408 28.0209L14.7488 23.3334H27.2481L31.9354 28.0209C32.9353 29.0209 34.2894 29.5834 35.6852 29.5834C38.935 29.5834 41.414 26.7293 40.9557 23.5209ZM18.9153 12.9167H14.7488V17.0834H12.6656V12.9167H8.4992V10.8334H12.6656V6.66675H14.7488V10.8334H18.9153V12.9167ZM27.2481 10.8334C26.1024 10.8334 25.1649 9.89592 25.1649 8.75008C25.1649 7.60425 26.1024 6.66675 27.2481 6.66675C28.3939 6.66675 29.3314 7.60425 29.3314 8.75008C29.3314 9.89592 28.3939 10.8334 27.2481 10.8334ZM31.4146 17.0834C30.2688 17.0834 29.3314 16.1459 29.3314 15.0001C29.3314 13.8543 30.2688 12.9167 31.4146 12.9167C32.5603 12.9167 33.4978 13.8543 33.4978 15.0001C33.4978 16.1459 32.5603 17.0834 31.4146 17.0834Z" fill="#2A7AE4"/>
<path d="M124.081 22C122.664 23.4167 121.014 24.125 119.131 24.125C117.964 24.125 116.864 23.8917 115.831 23.425C114.814 22.9583 113.923 22.3167 113.156 21.5C112.406 20.6833 111.806 19.725 111.356 18.625C110.923 17.5083 110.706 16.3083 110.706 15.025C110.706 13.8083 110.923 12.6667 111.356 11.6C111.806 10.5167 112.415 9.575 113.181 8.775C113.964 7.95833 114.881 7.31667 115.931 6.85C116.981 6.36667 118.123 6.125 119.356 6.125C121.022 6.125 122.447 6.475 123.631 7.175C124.831 7.875 125.73 8.81667 126.33 10L123.756 11.9C123.306 11.0167 122.672 10.3417 121.856 9.875C121.056 9.40833 120.181 9.175 119.231 9.175C118.481 9.175 117.789 9.33333 117.156 9.65C116.539 9.96667 116.006 10.4 115.556 10.95C115.123 11.5 114.781 12.1333 114.531 12.85C114.298 13.5667 114.181 14.325 114.181 15.125C114.181 15.9583 114.314 16.7417 114.581 17.475C114.848 18.1917 115.214 18.8167 115.681 19.35C116.148 19.8833 116.698 20.3083 117.331 20.625C117.981 20.925 118.681 21.075 119.431 21.075C121.147 21.075 122.697 20.2667 124.081 18.65V17.4H120.506V14.875H126.93V24H124.081V22Z" fill="#464646"/>
<path d="M135.62 24.25C134.57 24.25 133.62 24.075 132.77 23.725C131.92 23.3583 131.195 22.8667 130.595 22.25C129.995 21.6333 129.529 20.9167 129.195 20.1C128.879 19.2833 128.721 18.425 128.721 17.525C128.721 16.5917 128.879 15.7167 129.195 14.9C129.512 14.0667 129.97 13.3417 130.57 12.725C131.17 12.0917 131.895 11.5917 132.745 11.225C133.612 10.8583 134.579 10.675 135.645 10.675C136.712 10.675 137.662 10.8583 138.495 11.225C139.345 11.5917 140.062 12.0833 140.645 12.7C141.245 13.3167 141.695 14.0333 141.995 14.85C142.311 15.6667 142.47 16.5167 142.47 17.4C142.47 17.6167 142.461 17.825 142.445 18.025C142.445 18.225 142.428 18.3917 142.395 18.525H132.27C132.32 19.0417 132.445 19.5 132.645 19.9C132.845 20.3 133.104 20.6417 133.42 20.925C133.737 21.2083 134.095 21.425 134.495 21.575C134.895 21.725 135.312 21.8 135.745 21.8C136.412 21.8 137.037 21.6417 137.62 21.325C138.22 20.9917 138.628 20.5583 138.845 20.025L141.72 20.825C141.236 21.825 140.462 22.65 139.395 23.3C138.345 23.9333 137.087 24.25 135.62 24.25ZM139.02 16.35C138.937 15.3667 138.57 14.5833 137.92 14C137.287 13.4 136.512 13.1 135.595 13.1C135.145 13.1 134.72 13.1833 134.32 13.35C133.937 13.5 133.595 13.7167 133.295 14C132.995 14.2833 132.745 14.625 132.545 15.025C132.362 15.425 132.254 15.8667 132.22 16.35H139.02Z" fill="#464646"/>
<path d="M150.585 24.25C149.535 24.25 148.585 24.075 147.735 23.725C146.885 23.3583 146.16 22.8667 145.56 22.25C144.96 21.6333 144.494 20.9167 144.16 20.1C143.844 19.2833 143.686 18.425 143.686 17.525C143.686 16.5917 143.844 15.7167 144.16 14.9C144.477 14.0667 144.935 13.3417 145.535 12.725C146.135 12.0917 146.86 11.5917 147.71 11.225C148.577 10.8583 149.543 10.675 150.61 10.675C151.677 10.675 152.627 10.8583 153.46 11.225C154.31 11.5917 155.027 12.0833 155.61 12.7C156.21 13.3167 156.66 14.0333 156.96 14.85C157.276 15.6667 157.435 16.5167 157.435 17.4C157.435 17.6167 157.426 17.825 157.41 18.025C157.41 18.225 157.393 18.3917 157.36 18.525H147.235C147.285 19.0417 147.41 19.5 147.61 19.9C147.81 20.3 148.069 20.6417 148.385 20.925C148.702 21.2083 149.06 21.425 149.46 21.575C149.86 21.725 150.277 21.8 150.71 21.8C151.377 21.8 152.002 21.6417 152.585 21.325C153.185 20.9917 153.593 20.5583 153.81 20.025L156.685 20.825C156.201 21.825 155.427 22.65 154.36 23.3C153.31 23.9333 152.052 24.25 150.585 24.25ZM153.985 16.35C153.902 15.3667 153.535 14.5833 152.885 14C152.252 13.4 151.477 13.1 150.56 13.1C150.11 13.1 149.685 13.1833 149.285 13.35C148.902 13.5 148.56 13.7167 148.26 14C147.96 14.2833 147.71 14.625 147.51 15.025C147.327 15.425 147.219 15.8667 147.185 16.35H153.985Z" fill="#464646"/>
<path d="M168.425 24L164.625 18.325L162.825 20.1V24H159.475V5.75H162.825V16.825L168.075 10.925H171.65L166.775 16.475L172 24H168.425Z" fill="#464646"/>
<path d="M52.7717 6.25H55.8215L62.5711 24H59.0213L57.3714 19.575H51.1718L49.5469 24H45.9971L52.7717 6.25ZM56.7465 17.15L54.2966 10.175L51.7467 17.15H56.7465Z" fill="#2A7AE4"/>
<path d="M64.1679 5.75H67.5177V19.8C67.5177 20.2833 67.6344 20.6583 67.8677 20.925C68.101 21.1917 68.4343 21.325 68.8677 21.325C69.0676 21.325 69.2843 21.2917 69.5176 21.225C69.7676 21.1583 70.0009 21.075 70.2176 20.975L70.6676 23.525C70.2176 23.7417 69.6926 23.9083 69.0926 24.025C68.4927 24.1417 67.951 24.2 67.4677 24.2C66.4178 24.2 65.6012 23.925 65.0179 23.375C64.4512 22.8083 64.1679 22.0083 64.1679 20.975V5.75Z" fill="#2A7AE4"/>
<path d="M76.1268 24.25C74.7769 24.25 73.7519 23.8167 73.052 22.95C72.352 22.0833 72.002 20.8 72.002 19.1V10.9H75.3519V18.375C75.3519 20.3917 76.0768 21.4 77.5267 21.4C78.1767 21.4 78.8017 21.2083 79.4016 20.825C80.0183 20.425 80.5182 19.825 80.9015 19.025V10.9H84.2514V20.15C84.2514 20.5 84.3097 20.75 84.4263 20.9C84.5597 21.05 84.768 21.1333 85.0513 21.15V24C84.718 24.0667 84.4347 24.1083 84.2014 24.125C83.9847 24.1417 83.7847 24.15 83.6014 24.15C83.0014 24.15 82.5098 24.0167 82.1265 23.75C81.7598 23.4667 81.5432 23.0833 81.4765 22.6L81.4015 21.55C80.8182 22.45 80.0683 23.125 79.1516 23.575C78.235 24.025 77.2268 24.25 76.1268 24.25Z" fill="#2A7AE4"/>
<path d="M95.3798 13.8C94.3632 13.8167 93.4549 14.0167 92.655 14.4C91.855 14.7667 91.2801 15.325 90.9301 16.075V24H87.5803V10.9H90.6551V13.7C90.8884 13.25 91.1634 12.85 91.48 12.5C91.7967 12.1333 92.1383 11.8167 92.505 11.55C92.8716 11.2833 93.2383 11.0833 93.6049 10.95C93.9882 10.8 94.3549 10.725 94.7049 10.725C94.8882 10.725 95.0215 10.725 95.1048 10.725C95.2048 10.725 95.2965 10.7333 95.3798 10.75V13.8Z" fill="#2A7AE4"/>
<path d="M100.652 24.25C100.018 24.25 99.4267 24.15 98.8767 23.95C98.3267 23.7333 97.8518 23.4417 97.4518 23.075C97.0518 22.6917 96.7352 22.25 96.5018 21.75C96.2852 21.25 96.1769 20.7 96.1769 20.1C96.1769 19.4833 96.3102 18.9167 96.5768 18.4C96.8601 17.8667 97.2435 17.4167 97.7268 17.05C98.2267 16.6833 98.8184 16.4 99.5017 16.2C100.185 15.9833 100.935 15.875 101.752 15.875C102.335 15.875 102.901 15.925 103.451 16.025C104.018 16.125 104.518 16.2667 104.951 16.45V15.7C104.951 14.8333 104.701 14.1667 104.201 13.7C103.718 13.2333 102.993 13 102.027 13C101.327 13 100.643 13.125 99.9766 13.375C99.31 13.625 98.6267 13.9917 97.9268 14.475L96.9018 12.35C98.585 11.2333 100.402 10.675 102.352 10.675C104.235 10.675 105.693 11.1417 106.726 12.075C107.776 12.9917 108.301 14.325 108.301 16.075V20.15C108.301 20.5 108.359 20.75 108.476 20.9C108.609 21.05 108.818 21.1333 109.101 21.15V24C108.534 24.1167 108.043 24.175 107.626 24.175C106.993 24.175 106.501 24.0333 106.151 23.75C105.818 23.4667 105.61 23.0917 105.526 22.625L105.451 21.9C104.868 22.6667 104.16 23.25 103.326 23.65C102.493 24.05 101.602 24.25 100.652 24.25ZM101.602 21.8C102.168 21.8 102.701 21.7 103.201 21.5C103.718 21.3 104.118 21.0333 104.401 20.7C104.768 20.4167 104.951 20.1 104.951 19.75V18.25C104.551 18.1 104.118 17.9833 103.651 17.9C103.185 17.8 102.735 17.75 102.302 17.75C101.435 17.75 100.727 17.95 100.177 18.35C99.6267 18.7333 99.3517 19.225 99.3517 19.825C99.3517 20.3917 99.5683 20.8667 100.002 21.25C100.435 21.6167 100.968 21.8 101.602 21.8Z" fill="#2A7AE4"/>
</svg>
